<?xml version="1.0" encoding="UTF-8" standalone="no"?>
<svg
   height="48"
   viewBox="0 -960 960 960"
   width="48"
   version="1.1"
   id="svg1"
   sodipodi:docname="clinic-pulse-logo.svg"
   inkscape:version="1.3 (0e150ed6c4, 2023-07-21)"
   xmlns:inkscape="http://www.inkscape.org/namespaces/inkscape"
   xmlns:sodipodi="http://sodipodi.sourceforge.net/DTD/sodipodi-0.dtd"
   xmlns="http://www.w3.org/2000/svg"
   xmlns:svg="http://www.w3.org/2000/svg">
  <defs
     id="defs1" />
  <sodipodi:namedview
     id="namedview1"
     pagecolor="#505050"
     bordercolor="#ffffff"
     borderopacity="1"
     inkscape:showpageshadow="0"
     inkscape:pageopacity="0"
     inkscape:pagecheckerboard="1"
     inkscape:deskcolor="#d1d1d1"
     inkscape:zoom="17.3125"
     inkscape:cx="24"
     inkscape:cy="24"
     inkscape:window-width="1920"
     inkscape:window-height="1027"
     inkscape:window-x="-8"
     inkscape:window-y="-8"
     inkscape:window-maximized="1"
     inkscape:current-layer="svg1" />
  <path
     d="m 415,-276.00001 v 35 q 0,28 18.603,46.5 18.603,18.5 46.75,18.5 28.147,0 46.897,-18.5 18.75,-18.5 18.75,-46.5 v -35 h 34 q 28,0 47,-18.603 19,-18.603 19,-46.75 0,-28.147 -19,-46.897 -19,-18.75 -47,-18.75 h -34 v -34 Q 546,-469 526.897,-488 q -19.103,-19 -47.25,-19 -28.147,0 -46.397,19 -18.25,19 -18.25,47 v 34 h -35 q -28,0 -46.5,19.103 -18.5,19.103 -18.5,47.25 0,28.147 18.5,46.397 Q 352,-276 380,-276 Z M 230,0 Q 192.2,0 165.6,-26.6 139,-53.200005 139,-91.000005 V -467.00001 q 0,-22.13 8.547,-40.8 8.547,-18.669 27.453,-31.2 l 250,-189 q 23.68,-19 54.84,-19 31.16,0 55.16,19 l 250,189 q 19.062,12.198 28.031,31.081 8.969,18.883 8.969,40.919 v 376.000005 q 0,37.8 -26.894,64.400005 Q 768.213,0 730,0 Z"
     id="path1"
     style="fill:#e6ce37;fill-opacity:1" />
</svg>
